<svg width="40" height="40" viewBox="0 0 40 40" fill="none" xmlns="http://www.w3.org/2000/svg">
<path d="M11.6667 23.3333C12.7778 25.4762 16 28.3333 20 28.3333C24 28.3333 27.2223 25.4762 28.3334 23.3333M36.6667 20C36.6667 29.2047 29.2048 36.6666 20 36.6666C10.7953 36.6666 3.33337 29.2047 3.33337 20C3.33337 10.7952 10.7953 3.33331 20 3.33331C29.2048 3.33331 36.6667 10.7952 36.6667 20Z" stroke="#2D264B" stroke-width="1.5" stroke-linecap="round"/>
<path d="M16.6667 13.3333C16.6667 14.2538 15.9205 15 15 15C14.0796 15 13.3334 14.2538 13.3334 13.3333C13.3334 12.4128 14.0796 11.6666 15 11.6666C15.9205 11.6666 16.6667 12.4128 16.6667 13.3333Z" fill="#2D264B"/>
<path d="M26.6667 13.3333C26.6667 14.2538 25.9205 15 25 15C24.0796 15 23.3334 14.2538 23.3334 13.3333C23.3334 12.4128 24.0796 11.6666 25 11.6666C25.9205 11.6666 26.6667 12.4128 26.6667 13.3333Z" fill="#2D264B"/>
</svg>
